<svg width="16" height="16" viewBox="0 0 45 45" fill="none" xmlns="http://www.w3.org/2000/svg">
                                <path d="M13.5 36C11.0138 36 9.0225 38.0138 9.0225 40.5C9.0225 42.9862 11.0138 45 13.5 45C15.9862 45 18 42.9862 18 40.5C18 38.0138 15.9862 36 13.5 36ZM0.212551 2.61406e-08C0.0951623 1.17036e-08 0 0.0951622 0 0.212551V4.28745C0 4.40484 0.0951621 4.5 0.212551 4.5H3.9621C4.29059 4.5 4.58969 4.68923 4.73038 4.98607L12.5888 21.5662L9.55125 27.0788C9.2025 27.7313 9 28.4625 9 29.25C9 31.7362 11.0138 33.75 13.5 33.75H40.5V30.5253C40.5 29.821 39.929 29.25 39.2247 29.25H14.4562C14.1413 29.25 13.8938 29.0025 13.8938 28.6875C13.8938 28.5863 13.9163 28.4963 13.9613 28.4175L15.975 24.75H32.7375C34.425 24.75 35.8988 23.8162 36.675 22.4325L44.7188 7.83C44.8988 7.515 45 7.14375 45 6.75C45 5.50125 43.9875 4.5 42.75 4.5H9.48375L7.69211 0.728127C7.48087 0.283405 7.0325 8.64894e-07 6.54016 8.04343e-07L0.212551 2.61406e-08ZM36 36C33.5138 36 31.5225 38.0138 31.5225 40.5C31.5225 42.9862 33.5138 45 36 45C38.4862 45 40.5 42.9862 40.5 40.5C40.5 38.0138 38.4862 36 36 36Z" fill="white"></path>
                            </svg>